# xmcd
#
# Track frame offsets:
#	150
#	20640
#	37830
#
# Disc length: 795 seconds
#
# Revision: 0
# Processed by: cddbd v1.5.2PL0 Copyright (c) Steve Scherf et al.
# Submitted via: audiograbber 1.83.01
#
DISCID=19031903
DTITLE=Still - Fantasy
DYEAR=1999
DGENRE=Pop
TTITLE0=Fantasy
TTITLE1=He Never Heard Her Cry
TTITLE2=Waiting For This Moment
EXTD=
EXTT0=
EXTT1=
EXTT2=
PLAYORDER=
